<mxfile modified="2020-02-15T08:15:32.351Z" host="www.draw.io" agent="Mozilla/5.0 (Windows NT 10.0; Win64; x64) AppleWebKit/537.36 (KHTML, like Gecko) Chrome/80.0.3987.106 Safari/537.36" etag="atp0osoR_Eq5OdDN73vl" version="12.7.0" type="github">
  <diagram id="Ht1M8jgEwFfnCIfOTk4-" name="Page-1">
    <mxGraphModel dx="1648" dy="-7" grid="0" gridSize="10" guides="1" tooltips="1" connect="1" arrows="1" fold="1" page="1" pageScale="1" pageWidth="1169" pageHeight="827" math="0" shadow="0">
      <root>
        <mxCell id="0"/>
        <mxCell id="1" parent="0"/>
        <mxCell id="SCVMTBWpLvtzJIhz15lM-23" value="" style="shape=curlyBracket;whiteSpace=wrap;html=1;rounded=1;fontSize=14;rotation=90;" parent="1" vertex="1">
          <mxGeometry x="817.13" y="1010" width="24.5" height="312.5" as="geometry"/>
        </mxCell>
        <mxCell id="SCVMTBWpLvtzJIhz15lM-28" value="Trigger" style="edgeStyle=orthogonalEdgeStyle;html=1;endArrow=open;elbow=vertical;startArrow=none;endFill=0;strokeColor=#545B64;rounded=0;fontSize=14;strokeWidth=2;" parent="1" edge="1">
          <mxGeometry x="0.0038" y="-11" width="100" relative="1" as="geometry">
            <mxPoint x="274" y="1228.5" as="sourcePoint"/>
            <mxPoint x="408.5" y="1228.5" as="targetPoint"/>
            <mxPoint as="offset"/>
            <Array as="points">
              <mxPoint x="379.5" y="1229"/>
            </Array>
          </mxGeometry>
        </mxCell>
        <mxCell id="eRwH_LPqDJjBPy7GYKwc-2" value="Amazon SNS" style="outlineConnect=0;fontColor=#232F3E;gradientColor=#F34482;gradientDirection=north;fillColor=#BC1356;strokeColor=#ffffff;dashed=0;verticalLabelPosition=bottom;verticalAlign=top;align=center;html=1;fontSize=12;fontStyle=0;aspect=fixed;shape=mxgraph.aws4.resourceIcon;resIcon=mxgraph.aws4.sns;" vertex="1" parent="1">
          <mxGeometry x="790.38" y="1046.5" width="78" height="78" as="geometry"/>
        </mxCell>
        <mxCell id="eRwH_LPqDJjBPy7GYKwc-3" value="AWS Lambda &lt;br&gt;(Node.js runtime)" style="outlineConnect=0;fontColor=#232F3E;gradientColor=#F78E04;gradientDirection=north;fillColor=#D05C17;strokeColor=#ffffff;dashed=0;verticalLabelPosition=bottom;verticalAlign=top;align=center;html=1;fontSize=12;fontStyle=0;aspect=fixed;shape=mxgraph.aws4.resourceIcon;resIcon=mxgraph.aws4.lambda;" vertex="1" parent="1">
          <mxGeometry x="424" y="1190" width="78" height="78" as="geometry"/>
        </mxCell>
        <mxCell id="eRwH_LPqDJjBPy7GYKwc-4" value="SNS Topic" style="outlineConnect=0;fontColor=#232F3E;gradientColor=none;fillColor=#BC1356;strokeColor=none;dashed=0;verticalLabelPosition=bottom;verticalAlign=top;align=center;html=1;fontSize=12;fontStyle=0;aspect=fixed;pointerEvents=1;shape=mxgraph.aws4.topic;" vertex="1" parent="1">
          <mxGeometry x="674" y="1195.5" width="78" height="67" as="geometry"/>
        </mxCell>
        <mxCell id="eRwH_LPqDJjBPy7GYKwc-5" value="Topic Subscribers" style="outlineConnect=0;fontColor=#232F3E;gradientColor=none;fillColor=#BC1356;strokeColor=none;dashed=0;verticalLabelPosition=bottom;verticalAlign=top;align=center;html=1;fontSize=12;fontStyle=0;aspect=fixed;pointerEvents=1;shape=mxgraph.aws4.message;" vertex="1" parent="1">
          <mxGeometry x="909.5" y="1190" width="76" height="78" as="geometry"/>
        </mxCell>
        <mxCell id="eRwH_LPqDJjBPy7GYKwc-6" value="Amazon CloudWatch" style="outlineConnect=0;fontColor=#232F3E;gradientColor=#F34482;gradientDirection=north;fillColor=#BC1356;strokeColor=#ffffff;dashed=0;verticalLabelPosition=bottom;verticalAlign=top;align=center;html=1;fontSize=12;fontStyle=0;aspect=fixed;shape=mxgraph.aws4.resourceIcon;resIcon=mxgraph.aws4.cloudwatch;" vertex="1" parent="1">
          <mxGeometry x="185.63" y="1046.5" width="78" height="78" as="geometry"/>
        </mxCell>
        <mxCell id="eRwH_LPqDJjBPy7GYKwc-7" value="CloudWatch Events&lt;br&gt;(Cron)" style="outlineConnect=0;fontColor=#232F3E;gradientColor=none;fillColor=#BC1356;strokeColor=none;dashed=0;verticalLabelPosition=bottom;verticalAlign=top;align=center;html=1;fontSize=12;fontStyle=0;aspect=fixed;pointerEvents=1;shape=mxgraph.aws4.event_time_based;" vertex="1" parent="1">
          <mxGeometry x="182" y="1190" width="78" height="78" as="geometry"/>
        </mxCell>
        <mxCell id="eRwH_LPqDJjBPy7GYKwc-9" value="Publish" style="edgeStyle=orthogonalEdgeStyle;html=1;endArrow=open;elbow=vertical;startArrow=none;endFill=0;strokeColor=#545B64;rounded=0;fontSize=14;strokeWidth=2;" edge="1" parent="1">
          <mxGeometry x="0.0038" y="-11" width="100" relative="1" as="geometry">
            <mxPoint x="522" y="1228.5" as="sourcePoint"/>
            <mxPoint x="656.5" y="1228.5" as="targetPoint"/>
            <mxPoint as="offset"/>
            <Array as="points">
              <mxPoint x="627.5" y="1229"/>
            </Array>
          </mxGeometry>
        </mxCell>
        <mxCell id="eRwH_LPqDJjBPy7GYKwc-10" value="SMS" style="edgeStyle=orthogonalEdgeStyle;html=1;endArrow=open;elbow=vertical;startArrow=none;endFill=0;strokeColor=#545B64;rounded=0;fontSize=14;strokeWidth=2;" edge="1" parent="1">
          <mxGeometry x="0.0038" y="-11" width="100" relative="1" as="geometry">
            <mxPoint x="769.5" y="1228.5" as="sourcePoint"/>
            <mxPoint x="904" y="1228.5" as="targetPoint"/>
            <mxPoint as="offset"/>
            <Array as="points">
              <mxPoint x="875" y="1229"/>
              <mxPoint x="875" y="1229"/>
            </Array>
          </mxGeometry>
        </mxCell>
        <mxCell id="eRwH_LPqDJjBPy7GYKwc-12" value="" style="shape=curlyBracket;whiteSpace=wrap;html=1;rounded=1;fontSize=14;rotation=90;" vertex="1" parent="1">
          <mxGeometry x="209.88" y="1117.5" width="24.5" height="97.5" as="geometry"/>
        </mxCell>
      </root>
    </mxGraphModel>
  </diagram>
</mxfile>
